<?xml version="1.0" encoding="utf-8"?>
<!-- Generator: Adobe Illustrator 26.5.0, SVG Export Plug-In . SVG Version: 6.00 Build 0)  -->
<svg version="1.1" id="Layer_1" xmlns="http://www.w3.org/2000/svg" xmlns:xlink="http://www.w3.org/1999/xlink" x="0px" y="0px"
	 viewBox="0 0 436.8 168.3" style="enable-background:new 0 0 436.8 168.3;" xml:space="preserve">
<style type="text/css">
	.st0{fill:#245A9A;}
</style>
<g>
	<path class="st0" d="M255.2,45.4h-10.8l-10-16.7c-3.7-6.1-10.9-9.2-17.9-7.7l0,0c-18.3,4-34.7,13.1-47.8,26.2
		c-2.6,2.3-4.9,4.9-7,7.7l-10.8-18c0,0.2-14.8,6.3-30.5,8.4h-3l-25.6,0c-7.7,0-14.4,5.3-16.1,12.9C71.2,78.7,62,87.1,47.8,98.3
		L62,115.8c4.2,5.2,11.9,5.7,16.8,1.3c12.3-11.2,21-22.2,27-37.9h11.5h0.7c6.3,0,12-0.7,17.3-2.3l7.3,12.7v0.2
		c-1.6,4.5-3,8.9-4,13.8l32.8,7.5c5.4-25.3,20.6-44.8,40.5-53.4l3.7,6.8c4,6.6,9.1,14.8,22.5,14.8h16.9h125c4.9,0,8.9-4,8.9-8.9
		V45.4H255.2z"/>
	<path class="st0" d="M191.6,123.2L191.6,123.2c5.7,0,10.2,4.7,10.1,10.4c0,0,0,0.1,0,0.1c0,8.9,7.3,16.2,16.9,16.2
		c9.1,0,16.4-7.3,16.4-16.2c0,0,0-0.1,0-0.1c0-5.7,4.4-10.4,10.1-10.4h0c3.6,0,6.5-2.9,6.5-6.5v-9c0-5.5-4.5-10-10-10h-46.5
		c-5.5,0-10,4.5-10,10v9C185.1,120.3,188,123.2,191.6,123.2z"/>
</g>
</svg>
