<?xml version="1.0" encoding="utf-8"?>
<!-- Generator: Adobe Illustrator 26.5.0, SVG Export Plug-In . SVG Version: 6.00 Build 0)  -->
<svg version="1.1" id="Layer_1" xmlns="http://www.w3.org/2000/svg" xmlns:xlink="http://www.w3.org/1999/xlink" x="0px" y="0px"
	 viewBox="0 0 182.1 182.1" style="enable-background:new 0 0 182.1 182.1;" xml:space="preserve">
<style type="text/css">
	.st0{fill:#245A9A;}
</style>
<path class="st0" d="M91.1,11c44.3,0,80.1,35.8,80.1,80.1s-35.8,80.2-80.1,80.2S11,135.4,11,91.1S46.8,11,91.1,11 M91.1,0.3
	C41,0.3,0.3,41,0.3,91.1S41,182,91.1,182s90.8-40.7,90.8-90.8S141.2,0.3,91.1,0.3L91.1,0.3z"/>
<g>
	<path class="st0" d="M16,119.4c0.8-4.3,2.9-13,9.7-21.5c6-7.6,12.9-11.5,16.8-13.4l2.4,4.4c2.6,4.3,6,9.6,14.7,9.6h11h81.6
		c3.2,0,5.8-2.6,5.8-5.8V76.5H70.6h-7l-6.5-10.9c-2.4-4-7.1-6-11.7-5h0c-3.4,0.7-6.7,1.7-9.8,3c-3.3,1.3-12.5,5.3-21.4,14.1
		c-2.1,2.1-3.6,3.9-4.6,5.1C8.5,98,11,111.3,16,119.4z"/>
	<path class="st0" d="M73.6,127.3L73.6,127.3c3.7,0,6.6,3.1,6.6,6.8c0,0,0,0.1,0,0.1c0,5.8,4.7,10.6,11,10.6c6,0,10.7-4.7,10.7-10.6
		c0,0,0-0.1,0-0.1c0-3.7,2.9-6.8,6.6-6.8h0c2.4,0,4.3-1.9,4.3-4.3v-5.9c0-3.6-2.9-6.5-6.5-6.5H75.9c-3.6,0-6.5,2.9-6.5,6.5v5.9
		C69.3,125.4,71.2,127.3,73.6,127.3z"/>
</g>
</svg>
